REM DIRINDEX 1\2,1\3,1\4,1\6,1\5\7,1\5\8
REM DIRNAME cjc114,folder01,folder02,folder03,folder04,folder05,folder06,folder07
TITLE ""
FILE "DB4500_5th_2A_34.mp3" MP3
  TRACK 01 AUDIO
    TITLE "0:"
    INDEX 01 00:00:00
  TRACK 02 AUDIO
    TITLE "2:cjc114_1067"
    INDEX 01 00:00:03
  TRACK 03 AUDIO
    TITLE "0:"
    INDEX 01 00:01:24
  TRACK 04 AUDIO
    TITLE "3:cjc114_1068"
    INDEX 01 00:01:44
  TRACK 05 AUDIO
    TITLE "0:"
    INDEX 01 00:02:67
  TRACK 06 AUDIO
    TITLE "4:cjc114_1069"
    INDEX 01 00:03:17
  TRACK 07 AUDIO
    TITLE "0:"
    INDEX 01 00:05:34
  TRACK 08 AUDIO
    TITLE "2:cjc114_1070"
    INDEX 01 00:06:12
  TRACK 09 AUDIO
    TITLE "0:"
    INDEX 01 00:07:13
  TRACK 10 AUDIO
    TITLE "3:cjc114_1071"
    INDEX 01 00:07:43
  TRACK 11 AUDIO
    TITLE "0:"
    INDEX 01 00:08:58
  TRACK 12 AUDIO
    TITLE "4:cjc114_1072"
    INDEX 01 00:09:10
  TRACK 13 AUDIO
    TITLE "0:"
    INDEX 01 00:11:62
  TRACK 14 AUDIO
    TITLE "2:cjc114_1073"
    INDEX 01 00:12:42
  TRACK 15 AUDIO
    TITLE "0:"
    INDEX 01 00:13:51
  TRACK 16 AUDIO
    TITLE "3:cjc114_1074"
    INDEX 01 00:14:04
  TRACK 17 AUDIO
    TITLE "0:"
    INDEX 01 00:15:40
  TRACK 18 AUDIO
    TITLE "4:cjc114_1075"
    INDEX 01 00:15:70
  TRACK 19 AUDIO
    TITLE "0:"
    INDEX 01 00:18:17
  TRACK 20 AUDIO
    TITLE "2:cjc114_1076"
    INDEX 01 00:18:68
  TRACK 21 AUDIO
    TITLE "0:"
    INDEX 01 00:19:71
  TRACK 22 AUDIO
    TITLE "3:cjc114_1077"
    INDEX 01 00:20:24
  TRACK 23 AUDIO
    TITLE "0:"
    INDEX 01 00:21:41
  TRACK 24 AUDIO
    TITLE "4:cjc114_1078"
    INDEX 01 00:21:72
  TRACK 25 AUDIO
    TITLE "0:"
    INDEX 01 00:24:53
  TRACK 26 AUDIO
    TITLE "2:cjc114_1079"
    INDEX 01 00:25:29
  TRACK 27 AUDIO
    TITLE "0:"
    INDEX 01 00:26:50
  TRACK 28 AUDIO
    TITLE "3:cjc114_1080"
    INDEX 01 00:27:00
  TRACK 29 AUDIO
    TITLE "0:"
    INDEX 01 00:28:06
  TRACK 30 AUDIO
    TITLE "4:cjc114_1081"
    INDEX 01 00:28:35
  TRACK 31 AUDIO
    TITLE "0:"
    INDEX 01 00:30:73
  TRACK 32 AUDIO
    TITLE "2:cjc114_1082"
    INDEX 01 00:31:51
  TRACK 33 AUDIO
    TITLE "0:"
    INDEX 01 00:33:05
  TRACK 34 AUDIO
    TITLE "3:cjc114_1083"
    INDEX 01 00:33:34
  TRACK 35 AUDIO
    TITLE "0:"
    INDEX 01 00:34:36
  TRACK 36 AUDIO
    TITLE "4:cjc114_1084"
    INDEX 01 00:34:63
  TRACK 37 AUDIO
    TITLE "0:"
    INDEX 01 00:37:69
  TRACK 38 AUDIO
    TITLE "2:cjc114_1085"
    INDEX 01 00:38:47
  TRACK 39 AUDIO
    TITLE "0:"
    INDEX 01 00:39:45
  TRACK 40 AUDIO
    TITLE "3:cjc114_1086"
    INDEX 01 00:39:74
  TRACK 41 AUDIO
    TITLE "0:"
    INDEX 01 00:41:16
  TRACK 42 AUDIO
    TITLE "4:cjc114_1087"
    INDEX 01 00:41:45
  TRACK 43 AUDIO
    TITLE "0:"
    INDEX 01 00:45:20
  TRACK 44 AUDIO
    TITLE "2:cjc114_1088"
    INDEX 01 00:45:73
  TRACK 45 AUDIO
    TITLE "0:"
    INDEX 01 00:47:01
  TRACK 46 AUDIO
    TITLE "3:cjc114_1089"
    INDEX 01 00:47:30
  TRACK 47 AUDIO
    TITLE "0:"
    INDEX 01 00:48:38
  TRACK 48 AUDIO
    TITLE "4:cjc114_1090"
    INDEX 01 00:48:65
  TRACK 49 AUDIO
    TITLE "0:"
    INDEX 01 00:51:48
  TRACK 50 AUDIO
    TITLE "2:cjc114_1091"
    INDEX 01 00:52:28
  TRACK 51 AUDIO
    TITLE "0:"
    INDEX 01 00:53:27
  TRACK 52 AUDIO
    TITLE "3:cjc114_1092"
    INDEX 01 00:53:57
  TRACK 53 AUDIO
    TITLE "0:"
    INDEX 01 00:55:16
  TRACK 54 AUDIO
    TITLE "4:cjc114_1093"
    INDEX 01 00:55:46
  TRACK 55 AUDIO
    TITLE "0:"
    INDEX 01 00:58:73
  TRACK 56 AUDIO
    TITLE "2:cjc114_1094"
    INDEX 01 00:59:51
  TRACK 57 AUDIO
    TITLE "0:"
    INDEX 01 01:00:53
  TRACK 58 AUDIO
    TITLE "3:cjc114_1095"
    INDEX 01 01:01:13
  TRACK 59 AUDIO
    TITLE "0:"
    INDEX 01 01:02:57
  TRACK 60 AUDIO
    TITLE "4:cjc114_1096"
    INDEX 01 01:03:10
  TRACK 61 AUDIO
    TITLE "0:"
    INDEX 01 01:07:14
  TRACK 62 AUDIO
    TITLE "2:cjc114_1097"
    INDEX 01 01:07:74
  TRACK 63 AUDIO
    TITLE "0:"
    INDEX 01 01:08:74
  TRACK 64 AUDIO
    TITLE "3:cjc114_1098"
    INDEX 01 01:09:28
  TRACK 65 AUDIO
    TITLE "0:"
    INDEX 01 01:10:39
  TRACK 66 AUDIO
    TITLE "4:cjc114_1099"
    INDEX 01 01:10:69
  TRACK 67 AUDIO
    TITLE "0:"
    INDEX 01 01:13:16
  TRACK 68 AUDIO
    TITLE "4:cjc114_1100"
    INDEX 01 01:13:69
  TRACK 69 AUDIO
    TITLE "0:"
    INDEX 01 01:16:18
  TRACK 70 AUDIO
    TITLE "2:cjc114_1101"
    INDEX 01 01:16:71
  TRACK 71 AUDIO
    TITLE "0:"
    INDEX 01 01:18:15
  TRACK 72 AUDIO
    TITLE "3:cjc114_1102"
    INDEX 01 01:18:43
  TRACK 73 AUDIO
    TITLE "0:"
    INDEX 01 01:20:40
  TRACK 74 AUDIO
    TITLE "4:cjc114_1103"
    INDEX 01 01:20:69
  TRACK 75 AUDIO
    TITLE "0:"
    INDEX 01 01:24:28
  TRACK 76 AUDIO
    TITLE "4:cjc114_1104"
    INDEX 01 01:25:08
  TRACK 77 AUDIO
    TITLE "0:"
    INDEX 01 01:28:55
  TRACK 78 AUDIO
    TITLE "2:cjc114_1105"
    INDEX 01 01:29:33
  TRACK 79 AUDIO
    TITLE "0:"
    INDEX 01 01:30:46
  TRACK 80 AUDIO
    TITLE "3:cjc114_1106"
    INDEX 01 01:30:73
  TRACK 81 AUDIO
    TITLE "0:"
    INDEX 01 01:32:70
  TRACK 82 AUDIO
    TITLE "4:cjc114_1107"
    INDEX 01 01:33:23
  TRACK 83 AUDIO
    TITLE "0:"
    INDEX 01 01:37:13
